<?xml version="1.0" ?><svg viewBox="0 0 64 64" xmlns="http://www.w3.org/2000/svg"><title/><g id="Winner"><path d="M43.1777,40.6729,42.1338,32.09a.2744.2744,0,0,1,.0723-.2226l5.89-6.3311a2.2766,2.2766,0,0,0-1.2285-3.7841l-8.49-1.6612a.2721.2721,0,0,1-.1856-.1367l-4.2021-7.5586a2.2772,2.2772,0,0,0-3.9786,0l-4.2021,7.56a.2728.2728,0,0,1-.1885.1357L17.1328,21.752a2.2761,2.2761,0,0,0-1.2285,3.7832l5.8906,6.333a.2719.2719,0,0,1,.0713.22l-1.0439,8.5859a2.2779,2.2779,0,0,0,3.22,2.3389l7.84-3.6455a.2733.2733,0,0,1,.2344,0l7.8428,3.6455a2.2776,2.2776,0,0,0,3.2187-2.34Zm-2.0976.498a.2612.2612,0,0,1-.2783.0273L32.958,37.5527a2.276,2.276,0,0,0-1.918,0l-7.8408,3.6455a.2666.2666,0,0,1-.2793-.0273.2633.2633,0,0,1-.1113-.2559l1.0439-8.5869a2.2712,2.2712,0,0,0-.5937-1.8222l-5.89-6.333a.2755.2755,0,0,1,.1485-.4581l8.4844-1.6611a2.2628,2.2628,0,0,0,1.5546-1.1269l4.2022-7.5586a.2534.2534,0,0,1,.4824,0l4.2022,7.5576a2.2621,2.2621,0,0,0,1.5517,1.1279l8.4873,1.6611a.2761.2761,0,0,1,.1485.459l-5.8887,6.3311a2.2738,2.2738,0,0,0-.5947,1.8252l1.0439,8.584A.264.264,0,0,1,41.08,41.1709Z"/><path d="M18.6553,41.2305a1.0117,1.0117,0,0,0-.8565-.0518,6.4407,6.4407,0,0,0-3.7529,4.0773,6.4375,6.4375,0,0,0-5.5029.5311,1,1,0,0,0-.4756.7139,6.464,6.464,0,0,0,9.7353,6.4941c.0322-.0193.05-.0531.08-.0756.0174-.0059.0361-.0034.0532-.01a6.419,6.419,0,0,0,4.0518-5.6162A6.4953,6.4953,0,0,0,18.6553,41.2305ZM16.3289,51.5146a4.476,4.476,0,0,1-6.3279-4.2382,4.4338,4.4338,0,0,1,4.23.2646c.0108.0069.1133.0713.125.0772a4.4685,4.4685,0,0,1,.4718.3626c.05.0443.0937.0946.1418.1408.093.09.1871.178.2715.2745.0529.0605.098.1265.1474.19.07.09.142.1779.2048.2721.0472.0709.0867.1463.13.22.0546.093.1107.1851.1583.2817.0385.0782.07.16.1035.24.041.0975.0832.1945.1172.2948.0284.0834.05.1693.0731.2544.0279.1015.0561.2029.0768.3065.0174.0871.0282.1758.04.2641.0145.1054.0283.2109.0352.3178.0058.0888.0057.1784.0062.2679C16.3344,51.3744,16.3318,51.4445,16.3289,51.5146Zm3.6623-4.3427A4.4321,4.4321,0,0,1,18.28,50.43c-.0074-.0527-.021-.104-.03-.1564-.0124-.0751-.0273-.1492-.0424-.2237q-.06-.2987-.1484-.5888c-.017-.056-.0306-.1127-.0491-.168a6.4417,6.4417,0,0,0-.2824-.7056c-.0249-.0528-.0539-.1032-.08-.1553q-.1375-.273-.3007-.5322c-.0386-.0614-.077-.1226-.1177-.1828a6.4653,6.4653,0,0,0-.4538-.5995L16.7621,47.1a6.5442,6.5442,0,0,0-.5531-.5569c-.0519-.0469-.1057-.0914-.1593-.1368-.07-.0595-.1359-.1228-.2089-.18A4.4506,4.4506,0,0,1,18.1035,43.24a4.494,4.494,0,0,1,1.8877,3.9307Z"/><path d="M7.3809,19.1592a1.0012,1.0012,0,0,0,.8486.0976,5.0262,5.0262,0,0,0,1.0449-9.0254,1.0058,1.0058,0,0,0-.8486-.0976,5.0263,5.0263,0,0,0-1.0449,9.0254Zm-.3477-4.6143a2.9917,2.9917,0,0,1,1.5811-2.3222A3.0291,3.0291,0,0,1,8.041,17.168a2.995,2.995,0,0,1-1.0078-2.6221Z"/><path d="M11.63,42.4268c.0268-.0106.0443-.0345.07-.0472.0235-.0033.0473-.0026.0707-.0075a6.5043,6.5043,0,0,0,4.9424-4.8487v-.0009a6.4883,6.4883,0,0,0-2.2774-6.545,1.0107,1.0107,0,0,0-.832-.1933,6.4262,6.4262,0,0,0-4.39,3.3938,6.4147,6.4147,0,0,0-5.5028-.4065,1.0032,1.0032,0,0,0-.59.623A6.4725,6.4725,0,0,0,9.2852,42.87,6.4083,6.4083,0,0,0,11.63,42.4268Zm-.999-6.3887v-.001c.0082-.0261.0172-.0553.0184-.0615a4.4447,4.4447,0,0,1,2.9082-3.1084,4.4153,4.4153,0,0,1,1.208,4.1973,4.4972,4.4972,0,0,1-2.9394,3.22c-.0447-.0445-.09-.0886-.1325-.1348-.0624-.0673-.124-.135-.1817-.2056-.07-.0853-.134-.1742-.1968-.2639-.0479-.0685-.0965-.1366-.14-.2074-.0637-.103-.12-.21-.1752-.3171-.0321-.0626-.066-.1242-.095-.1881-.059-.1307-.1093-.2652-.1555-.4011-.0151-.0442-.0332-.0874-.0469-.1321a4.4711,4.4711,0,0,1-.13-.54l-.0039-.0179A4.6284,4.6284,0,0,1,10.6309,36.0381Zm-5.7344-.5537a4.4294,4.4294,0,0,1,3.6787.6347c-.0138.0882-.0181.1764-.0282.2647-.0081.0709-.0169.1413-.0226.2122a6.4511,6.4511,0,0,0,.0668,1.5817c.008.0475.0173.0943.0263.1416a6.4627,6.4627,0,0,0,.1875.7537l.0031.0108a6.4708,6.4708,0,0,0,.8755,1.7687,4.4761,4.4761,0,0,1-4.7871-5.3681Z"/><path d="M7.501,30.1357a5.5869,5.5869,0,0,0,1.0439-.0986c.0213-.004.0373-.02.058-.0248l.0153.0033h.0273A5.4728,5.4728,0,0,0,13.54,26.72l.001-.0019a5.4617,5.4617,0,0,0-.8818-5.8311.998.998,0,0,0-.7774-.3437,5.4384,5.4384,0,0,0-4.1,2.0047,5.4235,5.4235,0,0,0-4.4157-1.0711.9944.9944,0,0,0-.6875.5019A5.5145,5.5145,0,0,0,7.501,30.1357Zm3.9443-7.5488A3.5291,3.5291,0,0,1,9.85,27.748c.0073-.0459.0035-.0922.01-.1383a5.5448,5.5448,0,0,0,.0485-.6978c.0005-.0893-.0021-.1772-.0059-.2662a5.5255,5.5255,0,0,0-.0681-.6531c-.0119-.0728-.0189-.1457-.0337-.2179a5.407,5.407,0,0,0-.2358-.8244c-.0184-.0487-.0438-.0941-.0637-.1423a5.2383,5.2383,0,0,0-.3131-.6356c-.02-.0351-.0324-.0743-.0536-.1089A3.4531,3.4531,0,0,1,11.4453,22.5869Zm-7.2168.793a3.4286,3.4286,0,0,1,2.93,1.3515.7746.7746,0,0,0,.0791.09,3.5385,3.5385,0,0,1,.3992.7244c.01.0234.0223.0459.0316.07a3.5346,3.5346,0,0,1,.1965.7467c.0055.0362.013.0721.0174.1084a3.5154,3.5154,0,0,1,.01.7508c-.0038.0407-.0078.0815-.013.1222a3.4919,3.4919,0,0,1-.1748.7343c-.0063.0174-.0139.0343-.02.0517A3.5138,3.5138,0,0,1,4.2285,23.38Z"/><path d="M55.457,45.7871a6.4406,6.4406,0,0,0-5.5041-.535,6.4406,6.4406,0,0,0-3.7517-4.0734,1.0126,1.0126,0,0,0-.8565.0518,6.4953,6.4953,0,0,0-3.332,6.0625,6.419,6.419,0,0,0,4.0518,5.6162c.0171.0069.0358.0044.0532.01.0295.0225.0474.0563.08.0756a6.4742,6.4742,0,0,0,9.7353-6.4941A1,1,0,0,0,55.457,45.7871ZM47.206,47.135a6.4431,6.4431,0,0,0-.4419.5861c-.039.0578-.0759.1164-.1129.1753q-.1677.2667-.3083.5478c-.0233.0465-.0491.0912-.0712.1381a6.4345,6.4345,0,0,0-.2847.7138c-.0169.0511-.0295.1032-.0452.1546q-.0912.3-.1529.6091c-.0136.068-.0273.1356-.0387.2041-.0093.0556-.0236.11-.0314.1658a4.4345,4.4345,0,0,1-1.71-3.2578v-.001A4.494,4.494,0,0,1,45.8965,43.24a4.4507,4.4507,0,0,1,2.2617,2.9844c-.0793.0614-.1512.13-.2271.1943-.0493.0419-.0992.0826-.147.1258a6.4535,6.4535,0,0,0-.5533.5589C47.222,47.1137,47.2147,47.1248,47.206,47.135Zm4.8047,4.0291a4.4311,4.4311,0,0,1-4.34.3505c-.003-.07-.0055-.1392-.0052-.2086,0-.09,0-.1809.0062-.27.0069-.1053.0206-.2092.0348-.313.0124-.09.0236-.1809.0414-.27.02-.0985.0466-.1948.0727-.2914.025-.0918.0482-.1842.0789-.2741.03-.0869.0667-.1707.1016-.2556.0393-.0952.0766-.1911.1224-.2834.0354-.0714.0777-.1391.1169-.2085.0565-.1.1113-.2008.1756-.2963.0357-.0533.0776-.1023.1158-.1541.0771-.1046.1534-.21.24-.3078.0323-.0367.07-.0691.1034-.1047.0992-.1052.199-.21.309-.3059.0472-.0411.1-.0758.1494-.115.1036-.083.2057-.1676.3176-.2422l.0166-.0105.1-.0621a4.4338,4.4338,0,0,1,4.23-.2646A4.4272,4.4272,0,0,1,52.0107,51.1641Z"/><path d="M55.7705,19.2568a1.0012,1.0012,0,0,0,.8486-.0976,5.0263,5.0263,0,0,0-1.0449-9.0254,1.0062,1.0062,0,0,0-.8486.0976,5.0262,5.0262,0,0,0,1.0449,9.0254Zm-.3848-7.0341a2.9917,2.9917,0,0,1,1.5811,2.3222v.001A2.995,2.995,0,0,1,55.959,17.168a3.0291,3.0291,0,0,1-.5733-4.9453Z"/><path d="M60.2891,33.7715a6.4147,6.4147,0,0,0-5.5082.4095,6.4189,6.4189,0,0,0-4.3844-3.3968,1.0163,1.0163,0,0,0-.832.1933,6.4883,6.4883,0,0,0-2.2774,6.545v.0009A6.5043,6.5043,0,0,0,52.23,42.3721c.0234.0049.0472.0042.0707.0075.0256.0127.0431.0366.07.0472a6.4135,6.4135,0,0,0,2.3457.4433,6.4724,6.4724,0,0,0,6.1631-8.4756A1.0032,1.0032,0,0,0,60.2891,33.7715ZM53.4848,37.424a4.4613,4.4613,0,0,1-.0488.4524c-.005.03-.0138.059-.02.0888a4.4616,4.4616,0,0,1-.1221.4978l-.0116.0323a4.47,4.47,0,0,1-.8471,1.52c-.0122.0142-.0252.028-.0377.0421-.07.08-.1485.1527-.2242.228a4.4993,4.4993,0,0,1-2.9394-3.2206,4.4153,4.4153,0,0,1,1.208-4.1973,4.4447,4.4447,0,0,1,2.9082,3.1084c.0049.02.0254.0947.0322.1152a4.4984,4.4984,0,0,1,.0973.5932c.0053.0533.0026.1062.0059.16.0089.1458.0172.2916.0119.4365C53.4962,37.3284,53.488,37.3758,53.4848,37.424ZM57.793,39.65a4.4775,4.4775,0,0,1-3.4756,1.2021c.0335-.0473.061-.0979.0931-.146.0383-.0572.0742-.1151.1106-.1733q.1685-.27.309-.5536c.0236-.0475.05-.0934.0721-.1414a6.4974,6.4974,0,0,0,.2842-.7181c.0154-.0472.0266-.0953.0409-.1427q.0912-.3018.1523-.61c.014-.07.0273-.14.0389-.21a6.3585,6.3585,0,0,0,.0757-.6763c.0017-.03.0065-.06.0078-.09a6.2923,6.2923,0,0,0-.0184-.7678c-.0053-.0655-.0146-.13-.0221-.196-.0115-.1029-.018-.2062-.0347-.3088a4.425,4.425,0,0,1,3.6767-.6328A4.423,4.423,0,0,1,57.793,39.65Z"/><path d="M50.46,26.72a5.4728,5.4728,0,0,0,4.8945,3.2959H55.38c.0056,0,.0107-.0036.0163-.0037.021.0054.0373.0212.0589.0252a5.5869,5.5869,0,0,0,1.0439.0986,5.5149,5.5149,0,0,0,4.8223-8.1572.9944.9944,0,0,0-.6875-.5019,5.4314,5.4314,0,0,0-4.4154,1.0715,5.4386,5.4386,0,0,0-4.1-2.0051,1.0144,1.0144,0,0,0-.7774.3437,5.4617,5.4617,0,0,0-.8818,5.8311Zm5.6651-.26c.0049-.0375.013-.0748.0191-.1123a3.6381,3.6381,0,0,1,.2091-.7648c.01-.0247.0232-.0485.0337-.0731a3.9047,3.9047,0,0,1,.3957-.7108c.02-.0221.0413-.044.0591-.0677a3.426,3.426,0,0,1,2.93-1.3515,3.5143,3.5143,0,0,1-3.4549,4.7494c-.0064-.0173-.0141-.0342-.02-.0515a3.4549,3.4549,0,0,1-.1736-.7357c-.005-.0414-.009-.0828-.0126-.1243A3.493,3.493,0,0,1,56.1251,26.46Zm-3.57-3.8732a3.4541,3.4541,0,0,1,2.3135,1.48c-.0171.0286-.0266.06-.0432.0891a5.55,5.55,0,0,0-.3528.7291c-.0081.0207-.02.04-.0277.0611a5.5285,5.5285,0,0,0-.2367.8321c-.0171.0819-.0263.1642-.04.2467a5.484,5.484,0,0,0-.0654.6222c-.0044.0928-.0079.1847-.0075.2777a5.5125,5.5125,0,0,0,.0458.6737c.0064.05.0025.1009.01.1509a3.53,3.53,0,0,1-1.5967-5.1621Z"/></g></svg>