<?xml version="1.0" ?><!DOCTYPE svg  PUBLIC '-//W3C//DTD SVG 1.1//EN'  'http://www.w3.org/Graphics/SVG/1.1/DTD/svg11.dtd'><svg id="Layer_1" style="enable-background:new 0 0 512 512;" version="1.1" viewBox="0 0 512 512" xml:space="preserve" xmlns="http://www.w3.org/2000/svg" xmlns:xlink="http://www.w3.org/1999/xlink"><style type="text/css">
	.st0{fill:#FFFFFF;}
	.st1{fill:#263238;}
	.st2{fill:#FFCB28;}
	.st3{fill:#4CB6AC;}
	.st4{fill:#F48FB1;}
	.st5{fill:#263238;stroke:#263238;stroke-width:4;stroke-miterlimit:10;}
</style><g><g id="XMLID_844_"><g id="XMLID_401_"><g id="XMLID_477_"><path class="st0" d="M449.6,243.2c0,9.1-86.5,10.6-88,19.3c-1.6,8.9,79.2,39.8,76.1,48.2       c-3.1,8.5-84.8-19.8-89.3-12c-4.5,7.8,60.7,64.5,55,71.4c-5.8,6.9-73-47.6-79.8-41.8c-6.9,5.8,35.2,81.3,27.4,85.9       c-7.7,4.5-52.2-69.7-60.7-66.6c-8.3,3,5.2,88.5-3.8,90c-8.7,1.5-25.1-83.4-34.2-83.4c-9.1,0-25.5,84.9-34.2,83.4       c-8.9-1.6,4.6-87-3.8-90c-8.5-3.1-53,71-60.7,66.6c-7.8-4.5,34.2-80.1,27.4-85.9c-6.9-5.8-74.1,48.7-79.8,41.8       c-5.8-6.9,59.5-63.6,55-71.4c-4.5-7.7-86.2,20.5-89.3,12c-3-8.3,77.7-39.2,76.1-48.2c-1.5-8.7-88-10.2-88-19.3       c0-9.1,86.5-10.6,88-19.3c1.6-8.9-79.2-39.8-76.1-48.2c3.1-8.5,84.8,19.8,89.3,12c4.5-7.8-60.7-64.5-55-71.4       c5.8-6.9,73,47.6,79.8,41.8c6.9-5.8-35.2-81.3-27.4-85.9c7.7-4.5,52.2,69.7,60.7,66.6c8.3-3-5.2-88.5,3.8-90       c8.7-1.5,25.1,83.4,34.2,83.4c9.1,0,25.5-84.9,34.2-83.4c8.9,1.6-4.6,87,3.8,90c8.5,3.1,53-71,60.7-66.6       c7.8,4.5-34.2,80.1-27.4,85.9c6.9,5.8,74.1-48.7,79.8-41.8c5.8,6.9-59.5,63.6-55,71.4c4.5,7.7,86.2-20.5,89.3-12       c3,8.3-77.7,39.2-76.1,48.2C363.1,232.5,449.6,234,449.6,243.2z" id="XMLID_1467_"/></g><g id="XMLID_476_"><path class="st1" d="M285.7,447.8c-11.3,0-15.9-15.1-25.9-48.5c-2.2-7.2-4.9-16.4-7.5-24       c-2.6,7.5-5.3,16.8-7.5,24c-10.8,35.8-15.2,50.6-28.5,48.2c-13.4-2.4-12.5-19.2-10.4-56c0.4-7.2,0.9-16.2,1.1-23.9       c-4.9,6.1-10.5,13.6-14.9,19.5c-22.5,30.1-31.9,42.6-43.6,35.8c-11.8-6.8-5.1-22.2,9.4-55.9c2.9-6.7,6.5-15.1,9.3-22.3       c-6.6,4-14.4,9.1-20.4,13.1c-31.6,20.7-44.6,29.2-53.4,18.9c-8.7-10.4,2-21.7,27.7-49.2c5-5.3,11.4-12.1,16.5-18       c-7.5,1.5-16.5,3.6-23.5,5.3c-35.8,8.4-52.2,12.3-56.8-0.5c-4.6-12.7,9.2-19.7,42.7-36.5c6.6-3.3,15-7.6,21.9-11.3       c-7.5-1.1-16.5-2.2-23.5-3.1c-36.8-4.4-53.6-6.4-53.6-20.1c0-13.7,16.8-15.7,53.6-20.1c7.1-0.8,16-1.9,23.5-3.1       c-6.9-3.8-15.3-8-21.9-11.3c-33.5-16.9-47.3-23.9-42.7-36.5c4.7-12.8,21-9,56.8-0.5c7,1.6,15.9,3.8,23.5,5.3       c-5.1-5.8-11.5-12.6-16.5-18c-25.8-27.5-36.5-38.8-27.7-49.2c8.7-10.4,21.8-1.8,53.4,18.9c6.1,4,13.8,9.1,20.4,13.1       c-2.8-7.2-6.4-15.6-9.3-22.3c-14.5-33.7-21.1-49.1-9.4-55.9c11.7-6.8,21,5.7,43.6,35.8c4.4,5.9,10,13.4,14.9,19.5       c-0.2-7.6-0.7-16.7-1.1-23.9c-2.1-36.9-3-53.7,10.5-56c13.3-2.4,17.7,12.5,28.5,48.2c2.2,7.2,4.9,16.5,7.5,24       c2.6-7.5,5.3-16.8,7.5-24c10.8-35.8,15.2-50.6,28.5-48.2c13.4,2.4,12.5,19.2,10.5,56c-0.4,7.2-0.9,16.3-1.1,23.9       c4.9-6.1,10.5-13.6,14.9-19.5c22.5-30.1,31.9-42.6,43.6-35.8c11.8,6.8,5.1,22.2-9.4,55.9c-2.9,6.7-6.5,15.1-9.3,22.3       c6.6-4,14.3-9.1,20.4-13.1c31.6-20.7,44.6-29.3,53.4-18.9c8.7,10.4-2,21.7-27.7,49.2c-5,5.3-11.4,12.1-16.5,17.9       c7.5-1.5,16.5-3.6,23.5-5.3c35.8-8.4,52.2-12.3,56.8,0.5c4.6,12.7-9.2,19.7-42.7,36.5c-6.6,3.3-15,7.6-21.9,11.3       c7.5,1.1,16.5,2.2,23.5,3.1c36.8,4.4,53.5,6.4,53.5,20.1c0,13.7-16.8,15.7-53.6,20.1c-7.1,0.8-16,1.9-23.5,3.1       c6.9,3.8,15.3,8,21.9,11.3c33.5,16.9,47.3,23.9,42.7,36.5c-4.7,12.8-21,8.9-56.8,0.5c-7-1.7-15.9-3.8-23.5-5.3       c5.1,5.9,11.5,12.6,16.5,18c25.8,27.5,36.4,38.8,27.7,49.2c-8.7,10.4-21.8,1.8-53.4-18.9c-6.1-4-13.8-9-20.4-13.1       c2.8,7.2,6.4,15.6,9.3,22.3c14.9,34.7,21.1,49.1,9.4,55.9c-11.7,6.8-21-5.7-43.6-35.8c-4.4-5.9-10-13.4-14.9-19.5       c0.2,7.7,0.7,16.7,1.1,23.9c2.1,36.9,3,53.7-10.5,56C287.3,447.7,286.5,447.8,285.7,447.8z M213.4,337.1c1.4,0,2.9,0.3,4.4,0.8       c10.4,3.8,10.5,15.7,8.5,52c10.5-34.8,14.8-46,26-46s15.4,11.1,26,46c-2-36.4-1.9-48.2,8.5-52c10.4-3.8,18.2,5.2,40.1,34.3       c-14.4-33.5-18.3-44.7-9.8-51.8c8.6-7.2,19-1.3,49.6,18.7c-25-26.7-32.6-35.9-27-45.6c5.6-9.6,17.3-7.7,52.6,0.6       c-32.3-16.4-42.6-22.4-40.6-33.4c1.9-11.1,13.9-13.1,51.1-17.6c-37.2-4.5-49.2-6.5-51.1-17.6c-1.9-11,8.3-17.1,40.6-33.4       c-35.3,8.3-47,10.2-52.6,0.6c-5.6-9.7,2-18.9,27-45.6c-30.6,20-41,25.9-49.6,18.7c-8.5-7.2-4.6-18.4,9.8-51.9       c-21.8,29.1-29.6,38.1-40.1,34.3c-10.5-3.8-10.5-15.7-8.5-52c-10.5,34.8-14.7,46-26,46c-11.2,0-15.4-11.2-26-46       c2,36.3,1.9,48.2-8.5,52c-10.5,3.8-18.3-5.2-40.1-34.3c14.4,33.5,18.3,44.7,9.8,51.9c-8.6,7.2-18.9,1.3-49.6-18.7       c25,26.7,32.6,35.9,27,45.6c-5.6,9.6-17.2,7.7-52.6-0.6c32.3,16.4,42.6,22.4,40.6,33.4c-1.9,11.1-13.9,13.1-51.1,17.6       c37.2,4.5,49.1,6.5,51.1,17.6c1.9,11-8.3,17.1-40.6,33.4c35.3-8.3,47-10.2,52.6-0.6c5.6,9.7-2,18.9-27,45.6       c30.6-20,41-25.9,49.6-18.7c8.5,7.2,4.6,18.4-9.8,51.9C196.4,347.3,204.7,337.1,213.4,337.1z" id="XMLID_532_"/></g></g><g id="XMLID_411_"><g id="XMLID_412_"><path class="st0" d="M166.8,285.5L63.6,388.6c-8.8,8.8-1.1,23.7,11.2,21.7l36.7-6.2       c8.7-1.5,16.2,6.1,14.8,14.8l-6,35.6c-2.1,12.3,12.9,20,21.7,11.2l102.6-102.6c5-5,5-13.1,0-18.1l-59.6-59.6       C179.9,280.5,171.8,280.5,166.8,285.5z" id="XMLID_223_"/><path class="st2" d="M141.3,285.5L38.2,388.6c-8.8,8.8-1.1,23.7,11.2,21.7l36.7-6.2       c8.7-1.5,16.2,6.1,14.8,14.8l-6,35.6c-2.1,12.3,12.9,20,21.7,11.2L219,363.1c5-5,5-13.1,0-18.1l-59.6-59.6       C154.4,280.5,146.3,280.5,141.3,285.5z" id="XMLID_527_"/><path class="st1" d="M133,479.7c-3.6,0-7.2-0.9-10.7-2.6c-9.1-4.7-13.8-14.2-12.1-24.2l6-35.6       c0.2-1.1-0.3-1.9-0.7-2.3c-0.4-0.4-1.2-0.9-2.3-0.7l-36.7,6.2c-10,1.7-19.6-3.1-24.2-12.1c-4.7-9.1-3-19.6,4.2-26.8       l103.2-103.2c9-9,23.5-9,32.5,0l59.6,59.6c9,9,9,23.5,0,32.5L149.1,472.9C144.6,477.4,138.9,479.7,133,479.7z M113.6,393.8       c6,0,11.9,2.4,16.3,6.7c5.2,5.2,7.6,12.7,6.4,20.1l-6,35.6c-0.2,1.3,0.3,2.2,1.4,2.8c1.1,0.6,2.2,0.4,3.1-0.5l102.6-102.6       c0.6-0.6,0.8-1.4,0.8-1.9c0-0.5-0.1-1.2-0.8-1.9l-59.6-59.6c-1.3-1.3-2.4-1.3-3.7,0L70.8,395.8c-0.9,0.9-1.1,1.9-0.5,3.1       c0.6,1.1,1.5,1.6,2.8,1.4l36.7-6.2C111,393.9,112.3,393.8,113.6,393.8z" id="XMLID_528_"/></g></g><g id="XMLID_258_"><g id="XMLID_259_"><path class="st0" d="M348.9,285.5l103.2,103.2c8.8,8.8,1.1,23.7-11.2,21.7l-36.7-6.2       c-8.7-1.5-16.2,6.1-14.8,14.8l6,35.6c2.1,12.3-12.9,20-21.7,11.2L271.2,363.1c-5-5-5-13.1,0-18.1l59.6-59.6       C335.8,280.5,343.9,280.5,348.9,285.5z" id="XMLID_264_"/><path class="st2" d="M374.4,285.5l103.2,103.2c8.8,8.8,1.1,23.7-11.2,21.7l-36.7-6.2       c-8.7-1.5-16.2,6.1-14.8,14.8l6,35.6c2.1,12.3-12.9,20-21.7,11.2L296.7,363.1c-5-5-5-13.1,0-18.1l59.6-59.6       C361.2,280.5,369.4,280.5,374.4,285.5z" id="XMLID_263_"/><path class="st1" d="M366.6,472.9L264,370.3c-9-9-9-23.5,0-32.5l59.6-59.6c9-9,23.5-9,32.5,0l103.2,103.2       c7.2,7.2,8.8,17.7,4.2,26.8c-4.7,9.1-14.2,13.8-24.2,12.1l-36.7-6.2c-1.1-0.2-1.9,0.3-2.3,0.7c-0.4,0.4-0.9,1.2-0.7,2.3l6,35.6       c1.7,10.1-3.1,19.6-12.1,24.2c-3.4,1.8-7.1,2.6-10.7,2.6C376.8,479.7,371.1,477.4,366.6,472.9z M405.9,394.1l36.7,6.2       c1.3,0.2,2.2-0.3,2.8-1.4c0.6-1.1,0.4-2.2-0.5-3.1L341.7,292.7c-1.3-1.3-2.4-1.3-3.7,0l-59.6,59.6c-0.6,0.6-0.8,1.4-0.8,1.9       c0,0.5,0.1,1.2,0.8,1.9L381,458.5c0.9,0.9,1.9,1.1,3.1,0.5c1.1-0.6,1.6-1.5,1.4-2.8l-6-35.6c-1.2-7.3,1.2-14.8,6.4-20.1       c4.3-4.3,10.2-6.7,16.3-6.7C403.4,393.8,404.7,393.9,405.9,394.1z" id="XMLID_260_"/></g></g><g id="XMLID_464_"><circle class="st0" cx="252.2" cy="243.2" id="XMLID_1276_" r="154.2"/><path class="st3" d="M386.1,238.1c0,85.2-69,154.9-154.2,154.2c-72.9-0.6-133.7-58-133.7-143.1      S178.1,83.9,231.9,83.9C317,83.9,386.1,152.9,386.1,238.1z" id="XMLID_519_"/><path class="st1" d="M252.2,407.5c-90.6,0-164.4-73.7-164.4-164.4S161.6,78.8,252.2,78.8      s164.4,73.7,164.4,164.4S342.9,407.5,252.2,407.5z M252.2,99.2c-79.4,0-144,64.6-144,144s64.6,144,144,144      c79.4,0,144-64.6,144-144S331.6,99.2,252.2,99.2z" id="XMLID_520_"/></g><g id="XMLID_303_"><circle class="st0" cx="252.2" cy="243.2" id="XMLID_182_" r="105.7"/><circle class="st4" cx="231.9" cy="243.2" id="XMLID_513_" r="105.7"/><path class="st1" d="M252.2,359.1c-63.9,0-115.9-52-115.9-115.9c0-63.9,52-115.9,115.9-115.9      c63.9,0,115.9,52,115.9,115.9C368.2,307.1,316.2,359.1,252.2,359.1z M252.2,147.6c-52.7,0-95.6,42.9-95.6,95.6      s42.9,95.6,95.6,95.6s95.6-42.9,95.6-95.6S304.9,147.6,252.2,147.6z" id="XMLID_516_"/></g><g id="XMLID_39_"><path class="st5" d="M250.6,210.1h-0.3l-15.8,8.5l-2.4-9.3l19.8-10.6h10.5v90.6h-11.9V210.1z" id="XMLID_514_"/></g></g></g></svg>